<?xml version="1.0" standalone="no"?>
<!DOCTYPE svg PUBLIC "-//W3C//DTD SVG 20010904//EN"
 "http://www.w3.org/TR/2001/REC-SVG-20010904/DTD/svg10.dtd">
<svg version="1.0" xmlns="http://www.w3.org/2000/svg"
 width="900.000000pt" height="777.000000pt" viewBox="0 0 900.000000 777.000000"
 preserveAspectRatio="xMidYMid meet">
<metadata>
Created by potrace 1.15, written by Peter Selinger 2001-2017
</metadata>
<g transform="translate(0.000000,777.000000) scale(0.100000,-0.100000)"
fill="#000000" stroke="none">
<path d="M0 3885 l0 -3885 4500 0 4500 0 0 3885 0 3885 -4500 0 -4500 0 0
-3885z m1256 3634 c98 -5 184 -15 190 -20 14 -12 18 -24 149 -489 53 -190 131
-457 172 -593 53 -178 71 -252 64 -261 -16 -19 -350 -9 -371 10 -8 8 -29 65
-46 127 l-31 112 -69 6 c-38 4 -137 7 -220 8 l-152 1 -47 -117 c-25 -65 -54
-124 -63 -131 -13 -11 -45 -12 -142 -7 -148 8 -160 10 -160 36 0 11 56 160
124 332 68 172 181 460 251 642 69 181 131 335 137 342 13 16 -4 15 214 2z
m1464 -50 c166 -45 290 -158 344 -317 33 -95 38 -129 22 -145 -9 -9 -66 -18
-167 -26 -173 -14 -172 -14 -184 59 -10 60 -56 124 -107 149 -53 25 -148 28
-199 7 -80 -34 -138 -133 -164 -280 -29 -171 -10 -332 52 -420 59 -84 172
-123 273 -96 59 16 126 82 135 133 4 21 6 40 3 42 -2 2 -57 7 -123 11 -90 5
-123 10 -132 22 -15 18 -6 229 10 250 12 16 105 15 371 -2 151 -10 212 -18
223 -28 12 -12 12 -59 3 -309 -5 -162 -10 -317 -10 -346 0 -74 -15 -86 -99
-77 -36 3 -71 11 -78 16 -6 5 -17 31 -23 59 -7 27 -16 51 -20 54 -5 3 -36 -13
-70 -34 -110 -72 -158 -85 -295 -84 -133 1 -234 26 -327 80 -138 81 -232 227
-268 417 -16 86 -8 294 16 386 59 234 212 410 412 475 110 35 277 37 402 4z
m1271 -49 c61 0 70 -3 84 -23 8 -13 39 -104 69 -203 108 -352 138 -450 156
-504 10 -30 28 -89 40 -130 26 -89 78 -262 114 -381 30 -98 31 -115 11 -123
-27 -10 -348 13 -362 27 -7 7 -27 64 -44 127 -18 63 -36 121 -42 128 -7 9 -64
12 -222 12 l-213 0 -26 -67 c-14 -38 -33 -90 -42 -118 -9 -27 -21 -56 -26 -62
-16 -20 -291 -18 -307 1 -12 15 18 101 199 571 34 88 95 250 136 360 129 344
145 384 157 389 7 3 66 4 131 1 66 -3 150 -5 187 -5z m1000 -40 c6 -9 8 -78 5
-185 -3 -93 -10 -386 -16 -650 -7 -294 -15 -484 -21 -492 -15 -17 -318 -6
-339 13 -16 16 -16 239 0 679 5 138 10 332 10 433 0 112 4 191 11 204 10 19
19 20 175 16 133 -2 167 -6 175 -18z m569 1 l75 -6 53 -80 c29 -44 98 -156
154 -250 55 -93 113 -190 128 -215 15 -25 42 -72 61 -105 l34 -60 7 40 c4 22
7 174 7 338 1 369 -11 343 160 332 64 -4 120 -11 125 -15 5 -6 5 -275 0 -668
-8 -527 -12 -663 -23 -676 -11 -13 -35 -16 -137 -16 -67 0 -133 4 -147 9 -17
7 -63 78 -168 261 -79 138 -191 331 -249 428 l-105 177 -6 -145 c-4 -80 -7
-262 -8 -406 -1 -204 -4 -264 -15 -279 -12 -17 -26 -19 -132 -16 -65 1 -126 7
-135 12 -20 10 -20 -20 2 889 9 385 12 436 26 448 18 13 155 15 293 3z m1603
-16 c148 -12 299 -83 384 -179 48 -55 94 -141 87 -161 -9 -22 -269 -100 -296
-90 -9 4 -20 16 -25 28 -20 43 -67 90 -109 109 -90 39 -221 32 -264 -14 -27
-29 -27 -91 1 -119 24 -24 94 -55 146 -65 68 -12 262 -72 319 -98 121 -56 199
-137 240 -252 78 -215 -49 -448 -289 -530 -251 -86 -578 -31 -749 125 -56 51
-119 155 -133 218 -8 42 0 45 155 73 69 12 128 24 132 27 16 9 45 -8 57 -35
45 -100 122 -151 240 -160 101 -7 156 4 196 40 28 24 35 37 35 67 0 73 -44
103 -217 150 -312 85 -445 168 -500 312 -11 30 -16 75 -15 143 0 92 2 102 36
171 53 107 146 185 268 224 48 16 154 29 198 25 19 -2 66 -6 103 -9z m1237
-65 c96 -5 222 -10 280 -10 69 0 110 -4 118 -12 18 -18 17 -262 -2 -277 -10
-9 -63 -12 -171 -10 -85 1 -159 -1 -163 -5 -3 -4 -9 -239 -12 -522 -4 -442 -7
-516 -20 -525 -21 -14 -327 -6 -343 10 -9 9 -11 139 -8 535 l4 522 -167 10
c-129 7 -169 13 -176 24 -14 21 -12 237 1 262 11 20 15 20 248 14 130 -4 315
-11 411 -16z m-7130 -1460 c272 -6 671 -17 885 -26 215 -8 557 -19 760 -24
204 -5 451 -14 549 -19 99 -6 398 -15 665 -21 267 -5 569 -14 671 -20 498 -26
1267 -50 1590 -50 107 0 348 -7 535 -14 187 -8 480 -20 650 -26 171 -6 408
-15 527 -20 119 -6 311 -10 426 -10 167 0 212 -3 221 -14 8 -9 11 -50 9 -117
l-3 -104 -275 1 c-292 0 -764 16 -1225 40 -403 20 -826 33 -1510 44 -330 5
-706 16 -835 24 -129 8 -431 19 -670 26 -239 6 -541 15 -670 21 -129 6 -428
14 -665 19 -236 5 -480 14 -542 19 -112 10 -546 23 -1384 41 -246 5 -454 13
-463 16 -13 5 -16 23 -16 104 0 135 -1 135 155 126 66 -3 343 -10 615 -16z
m-180 -516 c374 -9 470 -33 576 -138 100 -101 141 -213 131 -364 -4 -67 -11
-96 -38 -150 -37 -76 -108 -150 -186 -194 -29 -16 -53 -33 -53 -36 0 -4 57
-149 126 -323 79 -197 124 -323 120 -334 -6 -16 -23 -17 -214 -10 -141 4 -210
10 -215 19 -5 6 -57 140 -115 296 l-107 285 -110 6 c-60 3 -116 3 -122 1 -9
-3 -13 -29 -13 -84 0 -141 -22 -472 -32 -492 -9 -17 -20 -18 -192 -11 -130 5
-185 10 -195 20 -12 12 -12 58 -2 302 6 158 16 362 21 453 5 91 15 296 21 455
7 186 15 295 22 304 9 11 42 12 172 7 88 -3 270 -9 405 -12z m1745 -52 l49 -7
23 -70 c147 -465 423 -1402 423 -1436 0 -9 -6 -19 -13 -22 -8 -3 -90 -1 -183
4 -93 4 -181 8 -196 9 -30 0 -34 10 -91 225 l-24 90 -247 3 -246 2 -12 -25
c-6 -14 -32 -80 -57 -148 l-46 -122 -168 -3 c-138 -2 -168 0 -173 12 -3 8 31
110 76 228 44 117 117 310 161 428 167 448 301 796 315 818 14 21 19 22 187
21 94 0 194 -4 222 -7z m1433 -27 c189 -39 324 -138 406 -295 53 -101 98 -288
78 -318 -13 -19 -374 -31 -395 -13 -8 6 -17 39 -20 75 -11 113 -59 195 -135
228 -35 16 -61 19 -127 16 -75 -3 -87 -6 -122 -34 -45 -36 -95 -130 -113 -212
-18 -85 -25 -343 -11 -431 27 -173 109 -254 256 -254 147 0 213 59 280 251 6
15 15 15 204 -4 98 -10 161 -21 170 -29 12 -12 12 -23 -4 -82 -69 -264 -261
-411 -581 -448 -75 -8 -231 11 -322 40 -174 55 -323 199 -397 384 -101 252
-72 628 64 835 50 76 132 160 204 207 56 36 180 84 242 92 76 10 259 6 323 -8z
m1058 -65 c23 -9 24 -13 24 -127 0 -65 -5 -394 -12 -732 -9 -496 -14 -616 -26
-627 -21 -22 -355 -20 -376 2 -18 17 -18 -8 5 768 5 181 9 409 9 505 0 190 4
218 27 223 34 6 327 -4 349 -12z m1052 -11 c108 -27 202 -81 270 -153 60 -65
118 -167 108 -191 -3 -8 -31 -22 -63 -30 -32 -9 -101 -30 -154 -46 -53 -16
-103 -27 -111 -24 -7 3 -24 25 -36 49 -44 81 -118 116 -249 116 -130 0 -186
-33 -186 -112 0 -35 6 -47 34 -73 38 -35 86 -50 274 -90 230 -50 323 -92 416
-191 164 -177 153 -441 -27 -619 -121 -120 -261 -169 -489 -169 -175 -1 -263
17 -401 84 -83 40 -111 60 -162 114 -38 41 -75 94 -97 139 -37 79 -43 108 -22
124 15 13 324 63 342 56 8 -2 19 -21 26 -41 17 -51 81 -116 142 -143 44 -21
68 -24 162 -24 97 0 115 3 151 23 75 43 97 123 50 179 -28 34 -92 57 -294 109
-288 72 -427 158 -475 291 -67 186 -23 370 120 503 75 71 153 111 259 134 89
19 307 12 412 -15z m977 -40 c61 -5 140 -9 177 -9 36 0 73 -3 82 -6 17 -7 17
-5 166 -508 55 -187 103 -342 105 -344 3 -3 7 1 9 9 3 8 41 120 85 249 43 129
100 296 126 370 26 74 49 145 52 157 12 53 16 53 325 45 158 -4 290 -11 295
-15 8 -9 6 -1373 -3 -1461 -3 -27 -8 -54 -11 -59 -8 -13 -374 0 -388 14 -6 6
-8 212 -6 552 1 298 0 539 -3 536 -6 -6 -81 -222 -282 -813 -35 -104 -72 -205
-81 -225 l-18 -36 -116 -2 c-72 -1 -125 3 -140 10 -17 9 -29 32 -47 87 -59
190 -234 759 -273 887 -23 78 -45 141 -48 138 -4 -2 -8 -244 -10 -537 -2 -395
-5 -536 -14 -545 -17 -17 -225 -15 -306 3 l-24 5 7 747 c5 518 10 750 18 759
12 14 85 13 323 -8z m-6406 -1780 c239 -6 445 -15 458 -20 23 -9 23 -9 17
-136 -4 -71 -12 -134 -18 -142 -9 -11 -35 -13 -131 -7 -303 16 -512 19 -519 7
-8 -12 -22 -261 -15 -261 2 0 110 -3 239 -6 129 -3 245 -7 258 -10 21 -4 22
-8 22 -133 0 -153 -7 -167 -74 -157 -23 3 -134 9 -248 13 l-207 6 -5 -24 c-2
-13 -9 -125 -15 -249 -5 -125 -13 -234 -17 -244 -6 -16 -22 -17 -181 -14 -141
2 -176 6 -183 18 -6 8 -8 51 -5 95 5 91 9 189 30 670 21 499 27 579 38 593 12
15 14 15 556 1z m1258 -42 c7 -7 19 -37 27 -67 8 -30 50 -179 94 -330 62 -210
238 -821 278 -962 3 -10 -2 -20 -13 -25 -26 -12 -350 0 -363 13 -6 6 -26 66
-45 134 -19 67 -36 124 -39 127 -7 8 -430 22 -437 14 -3 -3 -25 -58 -49 -121
-24 -63 -52 -123 -64 -134 -19 -16 -35 -18 -154 -14 -74 2 -137 9 -143 15 -13
13 -14 8 126 378 59 154 136 359 172 455 152 410 185 496 200 519 l15 23 191
-7 c122 -4 196 -11 204 -18z m1230 -22 c151 -44 261 -131 318 -251 l27 -58
-20 -17 c-21 -17 -233 -79 -270 -79 -14 0 -28 14 -44 42 -46 84 -149 126 -271
109 -71 -10 -104 -32 -112 -75 -15 -78 40 -120 204 -156 113 -25 271 -74 323
-101 54 -28 136 -116 171 -184 26 -51 31 -74 35 -153 4 -78 1 -102 -18 -155
-63 -172 -202 -279 -411 -317 -86 -16 -267 -13 -344 5 -131 30 -254 99 -318
177 -64 79 -114 206 -88 222 14 9 276 66 302 66 14 0 25 -12 35 -37 27 -64 64
-104 123 -131 47 -22 70 -26 146 -25 137 0 205 41 205 124 0 58 -38 90 -146
121 -265 77 -311 91 -368 118 -86 41 -149 99 -183 168 -26 52 -28 67 -28 167
0 92 4 119 23 168 44 108 169 216 295 257 94 30 302 27 414 -5z m1345 -31 c58
-18 137 -55 181 -86 52 -37 124 -135 156 -213 42 -100 67 -224 49 -242 -10 -9
-59 -13 -180 -14 -92 0 -171 2 -176 5 -5 3 -12 29 -15 58 -15 130 -61 195
-155 218 -157 37 -260 -58 -297 -274 -36 -212 -2 -441 76 -513 57 -52 188 -69
257 -34 56 29 90 71 121 147 26 66 30 69 63 72 61 5 290 -25 299 -40 19 -30
-29 -176 -87 -263 -46 -70 -101 -118 -185 -160 -118 -60 -239 -81 -379 -65
-168 19 -286 75 -396 187 -115 118 -171 263 -181 468 -19 400 189 702 527 766
64 11 259 1 322 -17z m915 -28 c4 -4 6 -48 5 -99 -21 -1178 -23 -1242 -42
-1258 -27 -23 -324 -28 -337 -5 -4 8 -5 124 -2 258 4 134 10 433 14 666 6 299
11 425 20 432 19 16 327 22 342 6z m887 -16 c96 -24 202 -80 255 -135 53 -53
111 -152 111 -187 0 -25 -5 -29 -52 -42 -127 -35 -209 -56 -223 -56 -8 0 -30
25 -50 56 -48 75 -113 106 -224 107 -93 1 -134 -17 -150 -66 -29 -85 22 -121
259 -183 265 -69 372 -141 448 -304 23 -48 26 -68 26 -160 0 -93 -3 -112 -26
-163 -31 -65 -113 -158 -174 -193 -146 -86 -419 -101 -619 -34 -91 30 -204
101 -251 157 -39 46 -93 141 -108 190 -10 33 23 49 156 72 167 30 173 29 192
-18 37 -94 123 -149 250 -158 128 -10 216 35 216 110 0 72 -46 101 -270 169
-319 96 -431 188 -460 376 -33 210 96 401 313 463 90 26 277 25 381 -1z m956
-60 c115 -7 179 -15 187 -23 7 -7 28 -67 47 -132 19 -66 60 -208 91 -315 32
-107 64 -221 72 -252 9 -32 18 -58 22 -58 3 0 60 160 126 357 66 196 127 365
135 375 14 18 27 19 264 12 212 -6 252 -10 266 -24 15 -15 16 -72 13 -671 -2
-360 -6 -664 -8 -676 -5 -23 -7 -23 -174 -23 -129 0 -171 3 -180 13 -7 10 -12
160 -13 495 l-3 480 -159 -474 c-88 -261 -164 -478 -170 -484 -5 -5 -58 -10
-117 -10 -88 0 -110 3 -126 18 -21 18 -105 277 -238 737 -64 221 -78 266 -80
263 -1 -2 -5 -221 -9 -488 -5 -364 -9 -488 -19 -497 -18 -17 -263 -5 -283 15
-13 12 -14 76 -10 441 3 234 5 535 5 668 1 203 3 244 16 257 12 12 32 14 93
11 42 -3 156 -10 252 -15z m-6981 -1639 c29 -8 42 -28 183 -292 56 -104 102
-188 103 -187 2 2 8 98 14 213 7 116 14 220 17 233 4 21 9 22 87 22 45 0 88
-4 96 -9 12 -8 12 -57 2 -322 -21 -549 -23 -594 -33 -606 -7 -9 -40 -13 -98
-13 -69 0 -92 4 -108 17 -11 10 -59 90 -106 178 -48 88 -112 208 -144 267 -31
59 -60 108 -63 108 -7 0 -19 -219 -19 -361 0 -125 -7 -167 -29 -178 -18 -9
-166 0 -177 11 -4 4 -7 29 -8 55 -2 101 36 829 45 851 8 21 14 22 111 21 57
-1 114 -4 127 -8z m1155 -37 c9 -8 16 -17 16 -20 0 -4 38 -136 125 -434 109
-370 133 -463 128 -476 -7 -19 -231 -21 -255 -1 -8 6 -23 44 -33 82 -29 114
-16 106 -173 103 l-137 -3 -25 -70 c-40 -113 -33 -107 -144 -108 -57 0 -102 5
-108 11 -8 8 3 48 39 144 49 130 133 354 235 628 27 74 57 141 66 148 25 19
246 17 266 -4z m709 -10 c135 -4 210 -10 214 -18 8 -12 5 -151 -3 -178 -5 -16
-19 -18 -114 -18 l-108 0 -6 -102 c-3 -57 -9 -215 -14 -353 -4 -137 -11 -256
-15 -262 -11 -18 -230 -18 -245 0 -7 9 -8 74 -1 212 5 110 10 270 12 355 l2
155 -107 5 c-58 3 -110 8 -114 12 -10 11 -4 168 7 191 10 18 19 19 147 13 76
-3 230 -9 345 -12z m521 -27 c17 -13 18 -34 6 -463 -10 -390 -14 -451 -28
-462 -22 -17 -202 -16 -226 1 -17 13 -17 32 -2 458 8 245 18 453 22 462 5 14
21 17 108 17 69 0 108 -4 120 -13z m627 -1 c194 -37 322 -220 323 -461 0 -108
-15 -176 -59 -270 -42 -87 -104 -153 -181 -191 -56 -27 -66 -29 -184 -29 -117
0 -129 2 -182 28 -242 119 -308 553 -119 787 47 58 65 73 128 104 85 42 171
52 274 32z m711 -33 c17 -20 231 -386 249 -427 7 -14 16 -26 21 -26 4 0 8 80
9 178 0 97 4 200 7 227 l7 50 87 3 c80 3 88 1 98 -19 9 -15 9 -117 1 -402 -6
-210 -11 -408 -11 -439 0 -83 -11 -90 -119 -82 -47 3 -92 12 -98 18 -11 10
-265 458 -297 523 -6 13 -14 23 -17 23 -10 0 -19 -171 -19 -352 0 -100 -4
-177 -11 -189 -9 -18 -19 -20 -90 -18 -44 2 -87 8 -95 13 -12 10 -13 70 -2
451 6 242 15 450 19 463 8 21 13 22 127 22 101 0 121 -3 134 -17z m1124 -27
c15 -14 31 -62 162 -491 136 -441 128 -411 105 -422 -19 -9 -237 -2 -247 8 -4
3 -15 41 -27 84 -11 44 -23 83 -25 87 -9 14 -270 10 -281 -4 -5 -7 -20 -44
-33 -83 -12 -38 -27 -76 -32 -82 -16 -19 -192 -18 -208 2 -9 11 -1 45 45 172
74 203 177 490 222 618 19 55 39 105 45 112 19 23 251 23 274 -1z m617 7 c5
-3 7 -163 5 -357 l-3 -351 120 -6 c66 -4 143 -7 172 -8 76 -2 84 -14 79 -118
-2 -47 -9 -90 -14 -95 -5 -5 -90 -5 -218 2 -115 5 -250 10 -300 10 -77 0 -93
3 -98 17 -11 27 5 886 16 900 15 19 212 24 241 6z m622 -28 c33 -4 65 -11 72
-17 16 -13 6 -897 -11 -915 -17 -18 -207 2 -223 24 -9 12 -11 103 -7 372 7
495 8 531 25 542 8 5 30 7 49 5 19 -3 62 -8 95 -11z m710 -55 c103 -39 226
-183 187 -222 -11 -11 -147 -48 -179 -48 -14 0 -29 12 -43 35 -30 48 -73 69
-142 69 -63 1 -98 -21 -98 -59 0 -37 34 -56 162 -92 156 -44 219 -74 262 -125
54 -63 70 -104 70 -183 1 -169 -116 -284 -311 -309 -96 -11 -172 -2 -268 35
-77 29 -172 121 -199 193 -25 66 -16 78 70 93 122 21 131 19 162 -32 36 -61
78 -80 170 -80 68 0 76 2 98 28 13 15 24 35 24 43 0 27 -46 61 -106 78 -255
71 -338 124 -371 235 -38 131 22 272 141 333 67 34 86 38 201 34 84 -2 124 -9
170 -26z m714 -28 c7 -13 111 -349 137 -444 3 -10 8 -18 12 -18 4 0 40 99 80
220 41 121 81 227 89 236 13 13 38 14 172 8 86 -4 164 -11 174 -16 17 -9 18
-33 15 -464 -3 -391 -5 -456 -18 -465 -19 -12 -210 0 -229 15 -11 9 -13 60 -7
308 5 178 4 298 -2 298 -5 0 -20 -37 -35 -82 -63 -201 -168 -502 -178 -514
-15 -18 -138 -19 -162 -1 -11 7 -42 93 -81 227 -35 118 -77 256 -92 305 l-29
90 -10 -300 c-5 -165 -14 -306 -18 -313 -10 -15 -160 -17 -188 -2 -19 11 -19
21 -13 458 4 252 11 452 16 459 13 17 34 18 205 15 132 -3 154 -5 162 -20z"/>
<path d="M1126 6913 c-78 -211 -78 -208 -29 -216 45 -8 203 -9 203 -2 0 5 -86
323 -96 358 -3 9 -9 17 -13 17 -4 0 -33 -71 -65 -157z"/>
<path d="M3752 6820 c-35 -99 -61 -184 -57 -190 4 -6 53 -10 121 -10 131 0
127 -4 95 96 -11 32 -34 110 -52 172 -18 61 -35 112 -38 112 -3 0 -34 -81 -69
-180z"/>
<path d="M904 5018 c-12 -19 -21 -310 -12 -331 8 -16 25 -17 187 -15 174 3
178 4 218 30 104 69 110 217 12 290 -44 33 -388 54 -405 26z"/>
<path d="M2522 4611 c-40 -109 -72 -206 -72 -214 0 -14 20 -16 131 -19 83 -2
134 1 139 8 6 6 3 31 -6 60 -26 86 -82 278 -94 322 -6 23 -14 42 -19 42 -4 0
-40 -89 -79 -199z"/>
<path d="M1946 2879 c-3 -8 -34 -95 -70 -194 -47 -130 -62 -182 -53 -187 7 -4
65 -8 131 -8 101 0 117 2 112 15 -3 8 -17 59 -32 113 -41 153 -74 265 -79 270
-2 3 -7 -1 -9 -9z"/>
<path d="M1536 1159 c-3 -8 -19 -54 -35 -104 -44 -128 -45 -125 39 -125 40 0
70 4 70 10 0 14 -59 222 -65 228 -2 3 -7 -1 -9 -9z"/>
<path d="M3417 1222 c-64 -44 -90 -125 -90 -287 -1 -163 35 -232 127 -242 120
-14 176 78 176 287 0 171 -42 249 -137 257 -36 3 -55 -1 -76 -15z"/>
<path d="M5202 972 c-18 -54 -32 -103 -32 -110 0 -8 22 -12 70 -12 75 0 80 4
61 52 -6 13 -19 56 -31 96 -12 39 -25 72 -29 72 -4 0 -21 -44 -39 -98z"/>
</g>
</svg>
